<?xml version="1.0" encoding="UTF-8"?>
<svg width="512px" height="512px" viewBox="0 0 512 512" version="1.1" xmlns="http://www.w3.org/2000/svg" xmlns:xlink="http://www.w3.org/1999/xlink">
    <title>Plugin Icon SVG@1x</title>
    <g id="Plugin-Icon-SVG" stroke="none" stroke-width="1" fill="none" fill-rule="evenodd">
        <rect fill="#202832" x="0" y="0" width="512" height="512"></rect>
        <g id="Media-Icon">
            <rect id="Rectangle" fill="#202832" x="0" y="0" width="512" height="512"></rect>
            <g transform="translate(56.000000, 62.000000)" fill="#FFFFFF" fill-rule="nonzero">
                <path d="M400,88.8781742 L400,387.254902 L0,387.254902 L0,88.8781742 L400,88.8781742 Z M380.952381,107.923497 L19.047619,107.923497 L19.047619,368.209579 L380.952381,368.209579 L380.952381,107.923497 Z M165.001174,167.36395 L197.67202,263.408572 L198.063288,263.408572 L228.973429,167.36395 L272.208501,167.36395 L272.208501,307.029653 L243.450331,307.029653 L243.450331,208.050878 L243.059064,208.050878 L208.823147,307.029653 L185.151456,307.029653 L150.91554,209.028929 L150.524272,209.028929 L150.524272,307.029653 L121.766102,307.029653 L121.766102,167.36395 L165.001174,167.36395 Z M50.7936508,44.4390871 L349.206349,44.4390871 L349.206349,63.4844102 L50.7936508,63.4844102 L50.7936508,44.4390871 Z M101.587302,0 L298.412698,0 L298.412698,19.045323 L101.587302,19.045323 L101.587302,0 Z"></path>
            </g>
        </g>
    </g>
</svg>